<?xml version="1.0" encoding="utf-8"?>
<!-- Generator: Adobe Illustrator 18.1.1, SVG Export Plug-In . SVG Version: 6.00 Build 0)  -->
<svg version="1.1" id="图层_1" xmlns="http://www.w3.org/2000/svg" xmlns:xlink="http://www.w3.org/1999/xlink" x="0px" y="0px"
	 viewBox="0 0 275.8 275.8" enable-background="new 0 0 275.8 275.8" xml:space="preserve">
<g>
	<path fill="#009245" d="M164.8,127.5c-18.4,0-35.1,0-53.1,0c0-12-0.4-23.3,0.1-34.5c0.4-9.2-3.9-11.6-12.1-11.1
		c-7.3,0.5-15.3-1.6-15.2,10.5c0.4,33,0.3,66,0,99c-0.1,11.1,7.3,9.9,14.5,10.1c7.6,0.2,13.2-0.9,12.8-10.6
		c-0.5-11.3-0.1-22.6-0.1-34.4c18.2,0,35.2,0,53.1,0c0,12.2,0.2,23.6-0.1,34.9c-0.2,11,7.3,10,14.5,10.1c7.5,0.2,13.2-0.7,13.2-10.4
		c-0.2-33-0.2-66,0-99c0.1-9.9-6-10.2-13.3-10.2c-7.4,0.1-14.6-0.6-14.3,10.3C165,103.5,164.8,114.9,164.8,127.5z M53.3,141.6
		c0,10.6,0.3,21.2-0.1,31.8c-0.4,10.2,6.1,10.1,13.2,10c7.2-0.1,14.7,1,14.6-9.9c-0.2-21.2-0.1-42.4-0.1-63.6
		c0-11.7-8.4-9.8-15.8-10.2c-8.1-0.4-12.6,2.1-12,11.3C53.8,121.1,53.3,131.4,53.3,141.6z M196.6,140.5c0,10.9,0.4,21.9-0.1,32.8
		c-0.4,9.1,4.6,10.6,11.8,9.9c6.5-0.6,15,2.7,14.9-9.1c-0.2-21.9-0.2-43.8,0-65.7c0.1-11-7.9-8.4-14.1-8.7
		c-6.5-0.3-12.9-0.6-12.6,9.1C196.8,119.4,196.6,130,196.6,140.5z M227.9,157c5.2-2.5,11.6-3.8,12-6.1c1.2-6.5,0.6-13.6-0.9-20.2
		c-0.4-1.6-6.8-1.8-11-2.7C227.9,138.1,227.9,146.2,227.9,157z M48.5,129.2c-13.3-3.4-13.2,4.8-13.3,13.2
		c-0.1,8.8,1.8,14.9,13.3,11.9C48.5,146.2,48.5,138.2,48.5,129.2z"/>
	<path fill="#009245" d="M164.8,127.5c0-12.6,0.2-24-0.1-35.3c-0.3-10.9,7-10.2,14.3-10.3c7.3-0.1,13.4,0.2,13.3,10.2
		c-0.2,33-0.2,66,0,99c0.1,9.7-5.7,10.6-13.2,10.4c-7.2-0.2-14.8,0.9-14.5-10.1c0.3-11.3,0.1-22.7,0.1-34.9c-17.9,0-34.8,0-53.1,0
		c0,11.8-0.4,23.1,0.1,34.4c0.4,9.7-5.2,10.9-12.8,10.6c-7.2-0.2-14.6,1-14.5-10.1c0.2-33,0.3-66,0-99c-0.1-12.1,7.9-10,15.2-10.5
		c8.2-0.5,12.6,1.9,12.1,11.1c-0.5,11.3-0.1,22.6-0.1,34.5C129.7,127.5,146.4,127.5,164.8,127.5z"/>
	<path fill="#009245" d="M53.3,141.6c0-10.2,0.5-20.4-0.1-30.6c-0.5-9.2,3.9-11.7,12-11.3c7.4,0.3,15.8-1.5,15.8,10.2
		c0,21.2-0.1,42.4,0.1,63.6c0.1,11-7.4,9.9-14.6,9.9c-7.1,0.1-13.6,0.3-13.2-10C53.6,162.8,53.3,152.2,53.3,141.6z"/>
	<path fill="#009245" d="M196.6,140.5c0-10.6,0.2-21.1-0.1-31.7c-0.3-9.7,6.1-9.4,12.6-9.1c6.2,0.3,14.2-2.3,14.1,8.7
		c-0.2,21.9-0.2,43.8,0,65.7c0.1,11.8-8.5,8.5-14.9,9.1c-7.2,0.6-12.2-0.9-11.8-9.9C197,162.5,196.6,151.5,196.6,140.5z"/>
	<path fill="#009245" d="M227.9,157c0-10.9,0-18.9,0-29c4.2,0.9,10.7,1.1,11,2.7c1.5,6.5,2.1,13.6,0.9,20.2
		C239.5,153.3,233.1,154.5,227.9,157z"/>
	<path fill="#009245" d="M48.5,129.2c0,8.9,0,17,0,25.1c-11.5,2.9-13.5-3.1-13.3-11.9C35.3,134,35.3,125.9,48.5,129.2z"/>
</g>
<g>
	<g>
		<path fill="#603813" d="M230.1,272.1c-26.9,0-53.8,0-80.8,0c-33.4,0-66.7,0-100.1,0c-5.2,0-10.3-0.2-15.4-1.7
			C19.8,266.3,8.7,254.8,5,240.6c-2.5-9.5-1.3-20.4-1.3-30.1c0-38.5,0-77,0-115.6c0-14.3,0-28.6,0-42.9c0-2.6-0.1-5.2,0-7.8
			c0.5-14.5,8.7-28,21.3-35.1c11.1-6.3,23.1-5.4,35.3-5.4c17,0,33.9,0,50.9,0c36.4,0,72.8,0,109.1,0c3.1,0,6.2,0,9.4,0
			c11.7,0.1,22.8,4.6,30.9,13.2c7.5,8,11.3,18.4,11.4,29.2c0,3.3,0,6.6,0,9.9c0,36.6,0,73.2,0,109.9c0,16.8,0,33.5,0,50.3
			c0,12.6,0.7,24.8-6.4,36.1C257.9,264.7,244.4,271.9,230.1,272.1c-4.8,0.1-4.8,7.6,0,7.5c27.4-0.4,49.1-22.4,49.4-49.7
			c0.1-10.2,0-20.4,0-30.6c0-40.4,0-80.7,0-121.1c0-10.7,0.1-21.3,0-32C279.2,20,259.2-2.1,232.8-3.7c-9.2-0.6-18.6-0.1-27.8-0.1
			c-19.4,0-38.8,0-58.3,0c-33.1,0-66.3-0.1-99.4,0C24.7-3.7,4.1,10.2-2.1,32.5c-2.8,10.2-1.8,21.9-1.8,32.4c0,39.8,0,79.6,0,119.4
			c0,13.9,0,27.9,0,41.8c0,5.3,0.2,10.6,1.4,15.8c3.3,13.7,12.8,25.7,25.4,32.1c11.9,6.1,24.3,5.5,37.1,5.5c17.7,0,35.4,0,53.1,0
			c36.7,0,73.4,0,110.1,0c2.3,0,4.5,0,6.8,0C234.9,279.6,234.9,272.1,230.1,272.1z"/>
	</g>
</g>
</svg>
