<?xml version="1.0" encoding="utf-8"?>
<!-- Generator: Adobe Illustrator 18.1.1, SVG Export Plug-In . SVG Version: 6.00 Build 0)  -->
<svg version="1.1" id="图层_1" xmlns="http://www.w3.org/2000/svg" xmlns:xlink="http://www.w3.org/1999/xlink" x="0px" y="0px"
	 viewBox="0 0 275.8 275.8" enable-background="new 0 0 275.8 275.8" xml:space="preserve">
<g>
	<g>
		<path fill="#603813" d="M230.3,272.9c-26.9,0-53.8,0-80.8,0c-33.4,0-66.7,0-100.1,0c-5.2,0-10.3-0.2-15.4-1.7
			C20,267.1,8.9,255.6,5.2,241.5c-2.5-9.5-1.3-20.4-1.3-30.1c0-38.5,0-77,0-115.6c0-14.3,0-28.6,0-42.9c0-2.6-0.1-5.2,0-7.8
			c0.5-14.5,8.7-28,21.3-35.1c11.1-6.3,23.1-5.4,35.3-5.4c17,0,33.9,0,50.9,0c36.4,0,72.8,0,109.1,0c3.1,0,6.2,0,9.4,0
			c11.7,0.1,22.8,4.6,30.9,13.2c7.5,8,11.3,18.4,11.4,29.2c0,3.3,0,6.6,0,9.9c0,36.6,0,73.2,0,109.9c0,16.8,0,33.5,0,50.3
			c0,12.6,0.7,24.8-6.4,36.1C258.2,265.5,244.7,272.7,230.3,272.9c-4.8,0.1-4.8,7.6,0,7.5c27.4-0.4,49.1-22.4,49.4-49.7
			c0.1-10.2,0-20.4,0-30.6c0-40.4,0-80.7,0-121.1c0-10.7,0.1-21.3,0-32c-0.3-26.2-20.3-48.2-46.7-49.8c-9.2-0.6-18.6-0.1-27.8-0.1
			c-19.4,0-38.8,0-58.3,0c-33.1,0-66.3-0.1-99.4,0C24.9-2.9,4.4,11-1.8,33.4c-2.8,10.2-1.8,21.9-1.8,32.4c0,39.8,0,79.6,0,119.4
			c0,13.9,0,27.9,0,41.8c0,5.3,0.2,10.6,1.4,15.8c3.3,13.7,12.8,25.7,25.4,32.1c11.9,6.1,24.3,5.5,37.1,5.5c17.7,0,35.4,0,53.1,0
			c36.7,0,73.4,0,110.1,0c2.3,0,4.5,0,6.8,0C235.1,280.4,235.1,272.9,230.3,272.9z"/>
	</g>
</g>
<g>
	<path fill="#009245" d="M139.8,229.5c-50.6-0.8-90-41.4-88.9-91.7c1.1-51.5,41.8-89.6,95.3-88.1c46.5,1.3,87.1,42.4,84.9,94.5
		C229,191.5,188.5,230.3,139.8,229.5z M117.7,177c21.3-12.7,41.4-24.7,62.9-37.5c-21.8-13-41.8-24.8-62.9-37.4
		C117.7,127.9,117.7,151.5,117.7,177z"/>
	<path fill="#FFFFFF" d="M117.7,177c0-25.5,0-49.1,0-74.9c21.1,12.5,41,24.4,62.9,37.4C159.1,152.3,139,164.3,117.7,177z"/>
</g>
</svg>
