<?xml version="1.0" encoding="utf-8"?>
<!-- Generator: Adobe Illustrator 18.1.1, SVG Export Plug-In . SVG Version: 6.00 Build 0)  -->
<svg version="1.1" id="图层_1" xmlns="http://www.w3.org/2000/svg" xmlns:xlink="http://www.w3.org/1999/xlink" x="0px" y="0px"
	 viewBox="0 0 386 140" enable-background="new 0 0 386 140" xml:space="preserve">
<g>
	<g>
		<path fill="#006837" d="M324.1,13.7c4.6,1.3,9,2.5,13.6,3.8c0.8-1.5,1.8-3.1,2.8-4.8c1.7-3,3.7-3.5,6.7-1.8c1.8,1,3.5,2,5.2,3
			c2.3,1.4,2.9,3.6,1.6,5.9c-1,1.8-2.1,3.7-3.2,5.6c0.4,0.4,0.8,0.7,1.2,1c14.8,12.6,22.1,28.6,21.4,48
			c-0.9,26.7-21.3,49.9-47.6,54.6c-29.4,5.2-57.5-11.7-66.4-40c-10.3-32.5,9.9-67.2,43.3-74.4c1.6-0.3,3.2-0.7,4.8-0.8
			c1-0.1,1.3-0.5,1.2-1.5c-0.1-2.6,0-5.1,0-7.7c0-3.1,1.6-4.6,4.6-4.7c2.1,0,4.2,0,6.4,0c2.8,0.1,4.4,1.7,4.4,4.5
			C324.1,7.6,324.1,10.7,324.1,13.7z M359.3,71.7c0-24.3-19.7-44-43.9-44.1c-24.5,0-44.3,19.7-44.3,44.2c0,24.2,19.8,43.9,44.1,43.9
			C339.5,115.7,359.3,96,359.3,71.7z"/>
		<path fill="#FFFFFF" d="M359.3,71.7c0,24.3-19.8,44.1-44.1,44.1c-24.3,0-44.1-19.8-44.1-43.9c0-24.5,19.8-44.2,44.3-44.2
			C339.6,27.6,359.3,47.4,359.3,71.7z"/>
	</g>
	<g>
		<path fill="#006837" d="M317.8,60.1c-1.7,0.2-3.4,0.4-5.1,0.6c-1.7,0.2-3.2,0.4-4.8,0.6c-1.5,0.2-2.8,0.3-3.9,0.5
			c-1.3,0.3-2.6,0.3-3.9,0c-1.3-0.3-2.6-1-3.9-2.2c-0.4-0.5-0.8-1.1-1.4-1.7c-0.5-0.6-1.1-1.3-1.6-2c-0.6-0.7-1.1-1.4-1.6-2.1
			c-0.5-0.7-0.9-1.4-1.2-2c-0.9-1.2-1.2-2.1-0.9-2.6c0.3-0.5,0.9-0.9,2-1.2c2.3-0.7,5-1.2,8.1-1.7c3.1-0.4,6.3-0.8,9.7-1.2
			c3.4-0.3,6.8-0.6,10.2-0.8c3.4-0.2,6.6-0.4,9.5-0.5c1.7,0,3.1,0.2,4.3,0.6c1.1,0.4,2.2,1.3,3.3,2.8c1.3,1.4,2.4,2.8,3.3,4.2
			c0.9,1.4,1.8,2.6,2.6,3.6c0.9,1.3,1.4,2.6,1.5,3.9c0,1.2-0.5,2.6-1.7,4c-3,3.9-6.1,8.1-9.3,12.6c-3.2,4.5-6.2,9-9.2,13.6
			c-3,4.6-5.9,9.3-8.6,13.9c-2.7,4.6-5.2,9-7.3,13.1c-0.4,0.9-1,1.5-1.6,1.6c-0.6,0.1-1.5-0.1-2.8-0.6c-1.3-0.6-2.5-1.3-3.8-2.1
			c-1.3-0.8-2.4-1.6-3.5-2.6c-1-0.9-1.5-1.8-1.6-2.6c-0.1-0.8,0.1-1.8,0.5-3.2c1.5-3.6,3.3-7.5,5.4-11.4c2-4,4.3-7.9,6.6-12
			c2.4-4,4.9-8.1,7.5-12.1c2.6-4,5.3-7.9,8-11.7C321.1,59.8,319.5,59.9,317.8,60.1z"/>
	</g>
</g>
<text transform="matrix(1 0 0 1 13.1575 106.6494)" fill="#603813" font-family="'GillSans-UltraBold'" font-size="80.7081">SLIM </text>
</svg>
